<?xml version="1.0" encoding="UTF-8" standalone="no"?>
<svg
   xmlns:dc="http://purl.org/dc/elements/1.1/"
   xmlns:cc="http://creativecommons.org/ns#"
   xmlns:rdf="http://www.w3.org/1999/02/22-rdf-syntax-ns#"
   xmlns:svg="http://www.w3.org/2000/svg"
   xmlns="http://www.w3.org/2000/svg"
   version="1.1"
   id="svg4212"
   viewBox="0 0 495.76999 166.741"
   height="166.741"
   width="495.76999">
  <defs
     id="defs4214" />
  <metadata
     id="metadata4217">
    <rdf:RDF>
      <cc:Work
         rdf:about="">
        <dc:format>image/svg+xml</dc:format>
        <dc:type
           rdf:resource="http://purl.org/dc/dcmitype/StillImage" />
        <dc:title></dc:title>
      </cc:Work>
    </rdf:RDF>
  </metadata>
  <g
     transform="translate(0,-885.62116)"
     id="layer1">
    <g
       id="g4872">
      <g
         transform="matrix(0.41031376,0,0,0.41031376,643.13745,25.641239)"
         id="g4883">
        <g
           transform="translate(-268.02969,1831.6582)"
           id="g4898">
          <path
             transform="matrix(1.1003287,0,0,1.1003287,40.965236,12.405163)"
             id="path4828"
             d="m -1030.5612,230.61191 243.11421,0 c 12.97427,0 23.69153,9.6484 28.03126,21.37371 l 100.59211,271.78471 c 4.33973,11.7253 -2.31787,19.09417 -14.24295,24.85397 l -99.31529,47.96903 c -11.92505,5.75978 -327.64614,-98.31404 -325.37294,-109.36566 l 48.3863,-235.24205 c 2.2732,-11.05162 5.833,-21.37371 18.8073,-21.37371 z"
             style="fill:#4d4d4d;fill-opacity:1;fill-rule:nonzero;stroke:none;stroke-width:1.22800004;stroke-linejoin:round;stroke-miterlimit:4;stroke-dasharray:none;stroke-opacity:1" />
          <path
             transform="matrix(1.1003287,0,0,1.1003287,40.965236,12.405163)"
             style="fill:#3aebe7;fill-opacity:1;fill-rule:nonzero;stroke:none;stroke-width:1.22800004;stroke-linejoin:round;stroke-miterlimit:4;stroke-dasharray:none;stroke-opacity:1"
             d="m -1087.15,228.88149 257.604,0 c 13.74754,0 22.89755,11.2019 24.81506,24.81507 l 44.44671,315.54469 c 1.91751,13.61317 -7.11971,30.45033 -20.77445,28.85567 L -1196.2465,549.6096 c -13.6547,-1.59466 -25.7099,-9.9637 -20.7744,-22.79475 l 105.0558,-273.11829 c 4.9355,-12.83105 11.0675,-24.81507 24.8151,-24.81507 z"
             id="rect4825" />
          <path
             id="rect4834"
             transform="matrix(1.1003287,0,0,1.1003287,68.473453,-26.511855)"
             d="m -1087.6074,329.87891 a 20.85923,20.85923 0 0 0 -20.8594,20.85937 20.85923,20.85923 0 0 0 13.4531,19.47266 c -2.5214,24.05253 -5.7989,112.23291 80.7559,118.47461 88.53503,8.66472 99.56935,-71.71657 99.8496,-110.18946 a 20.85923,20.85923 0 0 0 14.89843,-19.97265 20.85923,20.85923 0 0 0 -20.85937,-20.85938 20.85923,20.85923 0 0 0 -20.85938,20.85938 20.85923,20.85923 0 0 0 12.0293,18.87109 c -2.08688,32.08329 -4.07024,107.19262 -89.08198,94.20117 -68.0384,-10.39758 -62.4715,-79.32563 -62.6211,-101.13281 a 20.85923,20.85923 0 0 0 14.1543,-19.72461 20.85923,20.85923 0 0 0 -20.8594,-20.85937 z"
             style="fill:#002255;fill-opacity:1;fill-rule:nonzero;stroke:none;stroke-width:1.22800004;stroke-linejoin:round;stroke-miterlimit:4;stroke-dasharray:none;stroke-opacity:1" />
          <text
             xml:space="preserve"
             style="font-style:normal;font-weight:normal;font-size:393.9543457px;line-height:125%;font-family:sans-serif;letter-spacing:0px;word-spacing:0px;fill:#002255;fill-opacity:1;stroke:none;stroke-width:1px;stroke-linecap:butt;stroke-linejoin:miter;stroke-opacity:1"
             x="-627.50415"
             y="457.28766"
             id="text4849"><tspan
               x="-627.50415"
               y="457.28766"
               id="tspan4857"
               style="font-style:normal;font-variant:normal;font-weight:normal;font-stretch:normal;font-size:393.9543457px;font-family:Seravek;-inkscape-font-specification:Seravek;fill:#002255;fill-opacity:1">gys</tspan></text>
          <text
             xml:space="preserve"
             style="font-style:normal;font-weight:normal;font-size:103.91542816px;line-height:125%;font-family:sans-serif;letter-spacing:0px;word-spacing:0px;fill:#4d4d4d;fill-opacity:1;stroke:none;stroke-width:1px;stroke-linecap:butt;stroke-linejoin:miter;stroke-opacity:1"
             x="-623.36603"
             y="649.21765"
             id="text4861"><tspan
               id="tspan4863"
               x="-623.36603"
               y="649.21765"
               style="font-style:normal;font-variant:normal;font-weight:normal;font-stretch:normal;font-family:Seravek;-inkscape-font-specification:Seravek;fill:#4d4d4d;fill-opacity:1">consultancy</tspan></text>
        </g>
      </g>
    </g>
  </g>
</svg>
